<?xml version="1.0" encoding="iso-8859-1"?>
<!-- Generator: Adobe Illustrator 22.0.0, SVG Export Plug-In . SVG Version: 6.00 Build 0)  -->
<svg version="1.1" id="Layer_1" xmlns="http://www.w3.org/2000/svg" xmlns:xlink="http://www.w3.org/1999/xlink" x="0px" y="0px"
	 width="256px" height="256px" viewBox="0 0 256 256" enable-background="new 0 0 256 256" xml:space="preserve">
<g>
	<rect x="112" y="184" fill="#4FFA94" width="16" height="16"/>
	<rect x="128" y="184" fill="#4FFA94" width="16" height="16"/>
	<rect x="80" y="184" fill="#4FFA94" width="16" height="16"/>
	<rect x="64" y="184" fill="#4FFA94" width="16" height="16"/>
	<rect x="96" y="184" fill="#4FFA94" width="16" height="16"/>
	<rect x="144" y="184" fill="#4FFA94" width="16" height="16"/>
	<rect x="160" y="184" fill="#4FFA94" width="16" height="16"/>
	<rect x="176" y="184" fill="#4FFA94" width="16" height="16"/>
	<rect x="112" y="216" fill="#4FFA94" width="16" height="16"/>
	<rect x="128" y="216" fill="#4FFA94" width="16" height="16"/>
	<rect x="80" y="200" fill="#4FFA94" width="16" height="16"/>
	<rect x="64" y="200" fill="#4FFA94" width="16" height="16"/>
	<rect x="96" y="200" fill="#4FFA94" width="16" height="16"/>
	<rect x="144" y="200" fill="#4FFA94" width="16" height="16"/>
	<rect x="160" y="200" fill="#4FFA94" width="16" height="16"/>
	<rect x="176" y="200" fill="#4FFA94" width="16" height="16"/>
	<rect x="80" y="216" fill="#4FFA94" width="16" height="16"/>
	<rect x="96" y="216" fill="#4FFA94" width="16" height="16"/>
	<rect x="144" y="216" fill="#4FFA94" width="16" height="16"/>
	<rect x="160" y="216" fill="#4FFA94" width="16" height="16"/>
	<rect x="80" y="152" fill="#4FFA94" width="16" height="16"/>
	<rect x="112" y="152" fill="#4FFA94" width="16" height="16"/>
	<rect x="96" y="152" fill="#4FFA94" width="16" height="16"/>
	<rect x="128" y="152" fill="#4FFA94" width="16" height="16"/>
	<rect x="144" y="152" fill="#4FFA94" width="16" height="16"/>
	<rect x="96" y="152" fill="#4FFA94" width="16" height="16"/>
	<rect x="80" y="152" fill="#4FFA94" width="16" height="16"/>
	<rect x="128" y="152" fill="#4FFA94" width="16" height="16"/>
	<rect x="112" y="152" fill="#4FFA94" width="16" height="16"/>
	<rect x="144" y="152" fill="#4FFA94" width="16" height="16"/>
	<rect x="160" y="152" fill="#4FFA94" width="16" height="16"/>
	<rect x="80" y="168" fill="#4FFA94" width="16" height="16"/>
	<rect x="112" y="168" fill="#4FFA94" width="16" height="16"/>
	<rect x="128" y="168" fill="#4FFA94" width="16" height="16"/>
	<rect x="160" y="168" fill="#4FFA94" width="16" height="16"/>
	<rect x="64" y="168" fill="#4FFA94" width="16" height="16"/>
	<rect x="176" y="168" fill="#4FFA94" width="16" height="16"/>
	<rect x="160" y="152" fill="#4FFA94" width="16" height="16"/>
	<rect x="64" y="136" fill="#4FFA94" width="16" height="16"/>
	<rect x="80" y="120" fill="#4FFA94" width="16" height="16"/>
	<rect x="96" y="120" fill="#4FFA94" width="16" height="16"/>
	<rect x="112" y="120" fill="#4FFA94" width="16" height="16"/>
	<rect x="128" y="120" fill="#4FFA94" width="16" height="16"/>
	<rect x="144" y="120" fill="#4FFA94" width="16" height="16"/>
	<rect x="160" y="120" fill="#4FFA94" width="16" height="16"/>
	<rect x="176" y="136" fill="#4FFA94" width="16" height="16"/>
	<rect x="192" y="152" fill="#4FFA94" width="16" height="16"/>
	<rect x="48" y="152" fill="#4FFA94" width="16" height="16"/>
	<rect x="48" y="136" fill="#4FFA94" width="16" height="16"/>
	<rect x="32" y="136" fill="#4FFA94" width="16" height="16"/>
	<rect x="32" y="120" fill="#4FFA94" width="16" height="16"/>
	<rect x="48" y="120" fill="#4FFA94" width="16" height="16"/>
	<rect x="64" y="120" fill="#4FFA94" width="16" height="16"/>
	<rect x="32" y="104" fill="#4FFA94" width="16" height="16"/>
	<rect x="48" y="104" fill="#4FFA94" width="16" height="16"/>
	<rect x="64" y="104" fill="#4FFA94" width="16" height="16"/>
	<rect x="32" y="104" fill="#4FFA94" width="16" height="16"/>
	<rect x="48" y="104" fill="#4FFA94" width="16" height="16"/>
	<rect x="64" y="104" fill="#4FFA94" width="16" height="16"/>
	<rect x="80" y="104" fill="#4FFA94" width="16" height="16"/>
	<rect x="96" y="104" fill="#4FFA94" width="16" height="16"/>
	<rect x="112" y="104" fill="#4FFA94" width="16" height="16"/>
	<rect x="80" y="104" fill="#4FFA94" width="16" height="16"/>
	<rect x="96" y="104" fill="#4FFA94" width="16" height="16"/>
	<rect x="112" y="104" fill="#4FFA94" width="16" height="16"/>
	<rect x="128" y="104" fill="#4FFA94" width="16" height="16"/>
	<rect x="144" y="104" fill="#4FFA94" width="16" height="16"/>
	<rect x="160" y="104" fill="#4FFA94" width="16" height="16"/>
	<rect x="128" y="104" fill="#4FFA94" width="16" height="16"/>
	<rect x="144" y="104" fill="#4FFA94" width="16" height="16"/>
	<rect x="160" y="104" fill="#4FFA94" width="16" height="16"/>
	<rect x="176" y="104" fill="#4FFA94" width="16" height="16"/>
	<rect x="192" y="104" fill="#4FFA94" width="16" height="16"/>
	<rect x="208" y="104" fill="#4FFA94" width="16" height="16"/>
	<rect x="176" y="120" fill="#4FFA94" width="16" height="16"/>
	<rect x="192" y="120" fill="#4FFA94" width="16" height="16"/>
	<rect x="208" y="120" fill="#4FFA94" width="16" height="16"/>
	<rect x="192" y="136" fill="#4FFA94" width="16" height="16"/>
	<rect x="208" y="136" fill="#4FFA94" width="16" height="16"/>
	<rect x="176" y="104" fill="#4FFA94" width="16" height="16"/>
	<rect x="192" y="104" fill="#4FFA94" width="16" height="16"/>
	<rect x="48" y="88" fill="#4FFA94" width="16" height="16"/>
	<rect x="64" y="88" fill="#4FFA94" width="16" height="16"/>
	<rect x="80" y="88" fill="#4FFA94" width="16" height="16"/>
	<rect x="96" y="88" fill="#4FFA94" width="16" height="16"/>
	<rect x="112" y="88" fill="#4FFA94" width="16" height="16"/>
	<rect x="128" y="88" fill="#4FFA94" width="16" height="16"/>
	<rect x="144" y="88" fill="#4FFA94" width="16" height="16"/>
	<rect x="160" y="88" fill="#4FFA94" width="16" height="16"/>
	<rect x="176" y="88" fill="#4FFA94" width="16" height="16"/>
	<rect x="192" y="88" fill="#4FFA94" width="16" height="16"/>
	<rect x="48" y="72" fill="#4FFA94" width="16" height="16"/>
	<rect x="32" y="88" fill="#4FFA94" width="16" height="16"/>
	<rect x="32" y="72" fill="#4FFA94" width="16" height="16"/>
	<rect x="64" y="72" fill="#4FFA94" width="16" height="16"/>
	<rect x="80" y="72" fill="#4FFA94" width="16" height="16"/>
	<rect x="96" y="72" fill="#4FFA94" width="16" height="16"/>
	<rect x="112" y="72" fill="#4FFA94" width="16" height="16"/>
	<rect x="128" y="72" fill="#4FFA94" width="16" height="16"/>
	<rect x="144" y="72" fill="#4FFA94" width="16" height="16"/>
	<rect x="160" y="72" fill="#4FFA94" width="16" height="16"/>
	<rect x="176" y="72" fill="#4FFA94" width="16" height="16"/>
	<rect x="192" y="72" fill="#4FFA94" width="16" height="16"/>
	<rect x="208" y="88" fill="#4FFA94" width="16" height="16"/>
	<rect x="208" y="72" fill="#4FFA94" width="16" height="16"/>
	<rect x="48" y="56" fill="#4FFA94" width="16" height="16"/>
	<rect x="32" y="56" fill="#4FFA94" width="16" height="16"/>
	<rect x="64" y="56" fill="#4FFA94" width="16" height="16"/>
	<rect x="80" y="56" fill="#4FFA94" width="16" height="16"/>
	<rect x="96" y="56" fill="#4FFA94" width="16" height="16"/>
	<rect x="112" y="56" fill="#4FFA94" width="16" height="16"/>
	<rect x="128" y="56" fill="#4FFA94" width="16" height="16"/>
	<rect x="144" y="56" fill="#4FFA94" width="16" height="16"/>
	<rect x="160" y="56" fill="#4FFA94" width="16" height="16"/>
	<rect x="176" y="56" fill="#4FFA94" width="16" height="16"/>
	<rect x="192" y="56" fill="#4FFA94" width="16" height="16"/>
	<rect x="208" y="56" fill="#4FFA94" width="16" height="16"/>
	<rect x="48" y="40" fill="#4FFA94" width="16" height="16"/>
	<rect x="64" y="40" fill="#4FFA94" width="16" height="16"/>
	<rect x="80" y="40" fill="#4FFA94" width="16" height="16"/>
	<rect x="96" y="40" fill="#4FFA94" width="16" height="16"/>
	<rect x="112" y="40" fill="#4FFA94" width="16" height="16"/>
	<rect x="128" y="40" fill="#4FFA94" width="16" height="16"/>
	<rect x="144" y="40" fill="#4FFA94" width="16" height="16"/>
	<rect x="160" y="40" fill="#4FFA94" width="16" height="16"/>
	<rect x="176" y="40" fill="#4FFA94" width="16" height="16"/>
	<rect x="192" y="40" fill="#4FFA94" width="16" height="16"/>
	<rect x="64" y="24" fill="#4FFA94" width="16" height="16"/>
	<rect x="80" y="24" fill="#4FFA94" width="16" height="16"/>
	<rect x="96" y="24" fill="#4FFA94" width="16" height="16"/>
	<rect x="112" y="24" fill="#4FFA94" width="16" height="16"/>
	<rect x="128" y="24" fill="#4FFA94" width="16" height="16"/>
	<rect x="144" y="24" fill="#4FFA94" width="16" height="16"/>
	<rect x="160" y="24" fill="#4FFA94" width="16" height="16"/>
	<rect x="176" y="24" fill="#4FFA94" width="16" height="16"/>
	<rect x="208" y="104" fill="#4FFA94" width="16" height="16"/>
</g>
<g>
</g>
<g>
</g>
<g>
</g>
<g>
</g>
<g>
</g>
<g>
</g>
</svg>
