<?xml version="1.0" encoding="iso-8859-1"?>
<!-- Generator: Adobe Illustrator 22.0.0, SVG Export Plug-In . SVG Version: 6.00 Build 0)  -->
<svg version="1.1" id="Layer_1" xmlns="http://www.w3.org/2000/svg" xmlns:xlink="http://www.w3.org/1999/xlink" x="0px" y="0px"
	 width="256px" height="256px" viewBox="0 0 256 256" enable-background="new 0 0 256 256" xml:space="preserve">
<g>
	<rect x="112" y="192" fill="#4FFA94" width="16" height="16"/>
	<rect x="128" y="192" fill="#4FFA94" width="16" height="16"/>
	<rect x="80" y="192" fill="#4FFA94" width="16" height="16"/>
	<rect x="64" y="192" fill="#4FFA94" width="16" height="16"/>
	<rect x="96" y="192" fill="#4FFA94" width="16" height="16"/>
	<rect x="144" y="192" fill="#4FFA94" width="16" height="16"/>
	<rect x="160" y="192" fill="#4FFA94" width="16" height="16"/>
	<rect x="176" y="192" fill="#4FFA94" width="16" height="16"/>
	<rect x="112" y="224" fill="#4FFA94" width="16" height="16"/>
	<rect x="128" y="224" fill="#4FFA94" width="16" height="16"/>
	<rect x="80" y="208" fill="#4FFA94" width="16" height="16"/>
	<rect x="64" y="208" fill="#4FFA94" width="16" height="16"/>
	<rect x="96" y="208" fill="#4FFA94" width="16" height="16"/>
	<rect x="144" y="208" fill="#4FFA94" width="16" height="16"/>
	<rect x="160" y="208" fill="#4FFA94" width="16" height="16"/>
	<rect x="176" y="208" fill="#4FFA94" width="16" height="16"/>
	<rect x="80" y="224" fill="#4FFA94" width="16" height="16"/>
	<rect x="96" y="224" fill="#4FFA94" width="16" height="16"/>
	<rect x="144" y="224" fill="#4FFA94" width="16" height="16"/>
	<rect x="160" y="224" fill="#4FFA94" width="16" height="16"/>
	<rect x="80" y="160" fill="#4FFA94" width="16" height="16"/>
	<rect x="112" y="160" fill="#4FFA94" width="16" height="16"/>
	<rect x="96" y="160" fill="#4FFA94" width="16" height="16"/>
	<rect x="128" y="160" fill="#4FFA94" width="16" height="16"/>
	<rect x="144" y="160" fill="#4FFA94" width="16" height="16"/>
	<rect x="96" y="160" fill="#4FFA94" width="16" height="16"/>
	<rect x="80" y="160" fill="#4FFA94" width="16" height="16"/>
	<rect x="128" y="160" fill="#4FFA94" width="16" height="16"/>
	<rect x="112" y="160" fill="#4FFA94" width="16" height="16"/>
	<rect x="144" y="160" fill="#4FFA94" width="16" height="16"/>
	<rect x="160" y="160" fill="#4FFA94" width="16" height="16"/>
	<rect x="80" y="176" fill="#4FFA94" width="16" height="16"/>
	<rect x="112" y="176" fill="#4FFA94" width="16" height="16"/>
	<rect x="128" y="176" fill="#4FFA94" width="16" height="16"/>
	<rect x="160" y="176" fill="#4FFA94" width="16" height="16"/>
	<rect x="64" y="176" fill="#4FFA94" width="16" height="16"/>
	<rect x="176" y="176" fill="#4FFA94" width="16" height="16"/>
	<rect x="160" y="160" fill="#4FFA94" width="16" height="16"/>
	<rect x="64" y="144" fill="#4FFA94" width="16" height="16"/>
	<rect x="80" y="128" fill="#4FFA94" width="16" height="16"/>
	<rect x="96" y="128" fill="#4FFA94" width="16" height="16"/>
	<rect x="112" y="128" fill="#4FFA94" width="16" height="16"/>
	<rect x="128" y="128" fill="#4FFA94" width="16" height="16"/>
	<rect x="144" y="128" fill="#4FFA94" width="16" height="16"/>
	<rect x="160" y="128" fill="#4FFA94" width="16" height="16"/>
	<rect x="176" y="144" fill="#4FFA94" width="16" height="16"/>
	<rect x="192" y="160" fill="#4FFA94" width="16" height="16"/>
	<rect x="48" y="160" fill="#4FFA94" width="16" height="16"/>
	<rect x="48" y="144" fill="#4FFA94" width="16" height="16"/>
	<rect x="48" y="128" fill="#4FFA94" width="16" height="16"/>
	<rect x="64" y="128" fill="#4FFA94" width="16" height="16"/>
	<rect x="32" y="112" fill="#4FFA94" width="16" height="16"/>
	<rect x="64" y="112" fill="#4FFA94" width="16" height="16"/>
	<rect x="32" y="112" fill="#4FFA94" width="16" height="16"/>
	<rect x="64" y="112" fill="#4FFA94" width="16" height="16"/>
	<rect x="80" y="112" fill="#4FFA94" width="16" height="16"/>
	<rect x="96" y="112" fill="#4FFA94" width="16" height="16"/>
	<rect x="112" y="112" fill="#4FFA94" width="16" height="16"/>
	<rect x="80" y="112" fill="#4FFA94" width="16" height="16"/>
	<rect x="96" y="112" fill="#4FFA94" width="16" height="16"/>
	<rect x="112" y="112" fill="#4FFA94" width="16" height="16"/>
	<rect x="128" y="112" fill="#4FFA94" width="16" height="16"/>
	<rect x="144" y="112" fill="#4FFA94" width="16" height="16"/>
	<rect x="160" y="112" fill="#4FFA94" width="16" height="16"/>
	<rect x="128" y="112" fill="#4FFA94" width="16" height="16"/>
	<rect x="144" y="112" fill="#4FFA94" width="16" height="16"/>
	<rect x="160" y="112" fill="#4FFA94" width="16" height="16"/>
	<rect x="176" y="112" fill="#4FFA94" width="16" height="16"/>
	<rect x="208" y="112" fill="#4FFA94" width="16" height="16"/>
	<rect x="176" y="128" fill="#4FFA94" width="16" height="16"/>
	<rect x="192" y="128" fill="#4FFA94" width="16" height="16"/>
	<rect x="192" y="144" fill="#4FFA94" width="16" height="16"/>
	<rect x="48" y="96" fill="#4FFA94" width="16" height="16"/>
	<rect x="192" y="96" fill="#4FFA94" width="16" height="16"/>
	<rect x="48" y="80" fill="#4FFA94" width="16" height="16"/>
	<rect x="32" y="96" fill="#4FFA94" width="16" height="16"/>
	<rect x="32" y="80" fill="#4FFA94" width="16" height="16"/>
	<rect x="64" y="80" fill="#4FFA94" width="16" height="16"/>
	<rect x="80" y="80" fill="#4FFA94" width="16" height="16"/>
	<rect x="96" y="80" fill="#4FFA94" width="16" height="16"/>
	<rect x="112" y="80" fill="#4FFA94" width="16" height="16"/>
	<rect x="128" y="80" fill="#4FFA94" width="16" height="16"/>
	<rect x="144" y="80" fill="#4FFA94" width="16" height="16"/>
	<rect x="160" y="80" fill="#4FFA94" width="16" height="16"/>
	<rect x="176" y="80" fill="#4FFA94" width="16" height="16"/>
	<rect x="192" y="80" fill="#4FFA94" width="16" height="16"/>
	<rect x="208" y="96" fill="#4FFA94" width="16" height="16"/>
	<rect x="224" y="96" fill="#4FFA94" width="16" height="16"/>
	<rect x="208" y="80" fill="#4FFA94" width="16" height="16"/>
	<rect x="224" y="80" fill="#4FFA94" width="16" height="16"/>
	<rect x="48" y="64" fill="#4FFA94" width="16" height="16"/>
	<rect x="32" y="64" fill="#4FFA94" width="16" height="16"/>
	<rect x="16" y="112" fill="#4FFA94" width="16" height="16"/>
	<rect x="16" y="112" fill="#4FFA94" width="16" height="16"/>
	<rect x="16" y="128" fill="#4FFA94" width="16" height="16"/>
	<rect x="32" y="144" fill="#4FFA94" width="16" height="16"/>
	<rect x="16" y="96" fill="#4FFA94" width="16" height="16"/>
	<rect x="16" y="80" fill="#4FFA94" width="16" height="16"/>
	<rect x="16" y="64" fill="#4FFA94" width="16" height="16"/>
	<rect x="32" y="48" fill="#4FFA94" width="16" height="16"/>
	<rect x="64" y="64" fill="#4FFA94" width="16" height="16"/>
	<rect x="80" y="64" fill="#4FFA94" width="16" height="16"/>
	<rect x="96" y="64" fill="#4FFA94" width="16" height="16"/>
	<rect x="112" y="64" fill="#4FFA94" width="16" height="16"/>
	<rect x="128" y="64" fill="#4FFA94" width="16" height="16"/>
	<rect x="144" y="64" fill="#4FFA94" width="16" height="16"/>
	<rect x="160" y="64" fill="#4FFA94" width="16" height="16"/>
	<rect x="176" y="64" fill="#4FFA94" width="16" height="16"/>
	<rect x="192" y="64" fill="#4FFA94" width="16" height="16"/>
	<rect x="208" y="64" fill="#4FFA94" width="16" height="16"/>
	<rect x="208" y="48" fill="#4FFA94" width="16" height="16"/>
	<rect x="224" y="64" fill="#4FFA94" width="16" height="16"/>
	<rect x="48" y="48" fill="#4FFA94" width="16" height="16"/>
	<rect x="48" y="32" fill="#4FFA94" width="16" height="16"/>
	<rect x="64" y="48" fill="#4FFA94" width="16" height="16"/>
	<rect x="80" y="48" fill="#4FFA94" width="16" height="16"/>
	<rect x="96" y="48" fill="#4FFA94" width="16" height="16"/>
	<rect x="112" y="48" fill="#4FFA94" width="16" height="16"/>
	<rect x="128" y="48" fill="#4FFA94" width="16" height="16"/>
	<rect x="144" y="48" fill="#4FFA94" width="16" height="16"/>
	<rect x="160" y="48" fill="#4FFA94" width="16" height="16"/>
	<rect x="176" y="48" fill="#4FFA94" width="16" height="16"/>
	<rect x="192" y="48" fill="#4FFA94" width="16" height="16"/>
	<rect x="192" y="32" fill="#4FFA94" width="16" height="16"/>
	<rect x="64" y="32" fill="#4FFA94" width="16" height="16"/>
	<rect x="80" y="32" fill="#4FFA94" width="16" height="16"/>
	<rect x="96" y="32" fill="#4FFA94" width="16" height="16"/>
	<rect x="112" y="32" fill="#4FFA94" width="16" height="16"/>
	<rect x="128" y="32" fill="#4FFA94" width="16" height="16"/>
	<rect x="144" y="32" fill="#4FFA94" width="16" height="16"/>
	<rect x="160" y="32" fill="#4FFA94" width="16" height="16"/>
	<rect x="176" y="32" fill="#4FFA94" width="16" height="16"/>
	<rect x="80" y="16" fill="#4FFA94" width="16" height="16"/>
	<rect x="96" y="16" fill="#4FFA94" width="16" height="16"/>
	<rect x="112" y="16" fill="#4FFA94" width="16" height="16"/>
	<rect x="128" y="16" fill="#4FFA94" width="16" height="16"/>
	<rect x="144" y="16" fill="#4FFA94" width="16" height="16"/>
	<rect x="160" y="16" fill="#4FFA94" width="16" height="16"/>
	<rect x="208" y="112" fill="#4FFA94" width="16" height="16"/>
	<rect x="224" y="112" fill="#4FFA94" width="16" height="16"/>
	<rect x="224" y="128" fill="#4FFA94" width="16" height="16"/>
	<rect x="208" y="144" fill="#4FFA94" width="16" height="16"/>
</g>
<rect x="392" y="80" fill="#4FFA94" width="16" height="16"/>
<rect x="392" y="96" fill="#4FFA94" width="16" height="16"/>
<rect x="392" y="112" fill="#4FFA94" width="16" height="16"/>
<rect x="376" y="96" fill="#4FFA94" width="16" height="16"/>
<rect x="360" y="96" fill="#4FFA94" width="16" height="16"/>
<rect x="344" y="112" fill="#4FFA94" width="16" height="16"/>
<rect x="344" y="128" fill="#4FFA94" width="16" height="16"/>
<rect x="376" y="112" fill="#4FFA94" width="16" height="16"/>
<rect x="408" y="96" fill="#4FFA94" width="16" height="16"/>
<rect x="424" y="96" fill="#4FFA94" width="16" height="16"/>
<rect x="440" y="112" fill="#4FFA94" width="16" height="16"/>
<rect x="440" y="128" fill="#4FFA94" width="16" height="16"/>
<rect x="408" y="112" fill="#4FFA94" width="16" height="16"/>
<rect x="392" y="128" fill="#4FFA94" width="16" height="16"/>
<rect x="376" y="128" fill="#4FFA94" width="16" height="16"/>
<rect x="376" y="144" fill="#4FFA94" width="16" height="16"/>
<rect x="408" y="128" fill="#4FFA94" width="16" height="16"/>
<rect x="408" y="144" fill="#4FFA94" width="16" height="16"/>
<rect x="376" y="160" fill="#4FFA94" width="16" height="16"/>
<rect x="408" y="160" fill="#4FFA94" width="16" height="16"/>
<rect x="276" fill="none" width="256" height="256"/>
<g>
</g>
<g>
</g>
<g>
</g>
<g>
</g>
<g>
</g>
<g>
</g>
</svg>
