<?xml version="1.0" encoding="utf-8"?>
<!-- Generator: Adobe Illustrator 22.0.0, SVG Export Plug-In . SVG Version: 6.00 Build 0)  -->
<svg version="1.1" id="Layer_1" xmlns="http://www.w3.org/2000/svg" xmlns:xlink="http://www.w3.org/1999/xlink" x="0px" y="0px"
	 width="256px" height="256px" viewBox="0 0 256 256" style="enable-background:new 0 0 256 256;" xml:space="preserve">
<style type="text/css">
	.st0{fill:#4FFA94;}
	.st1{fill:none;}
</style>
<rect x="664" y="80" class="st0" width="16" height="16"/>
<rect x="664" y="96" class="st0" width="16" height="16"/>
<rect x="664" y="112" class="st0" width="16" height="16"/>
<rect x="648" y="96" class="st0" width="16" height="16"/>
<rect x="632" y="96" class="st0" width="16" height="16"/>
<rect x="616" y="112" class="st0" width="16" height="16"/>
<rect x="616" y="128" class="st0" width="16" height="16"/>
<rect x="648" y="112" class="st0" width="16" height="16"/>
<rect x="680" y="96" class="st0" width="16" height="16"/>
<rect x="696" y="96" class="st0" width="16" height="16"/>
<rect x="712" y="112" class="st0" width="16" height="16"/>
<rect x="712" y="128" class="st0" width="16" height="16"/>
<rect x="680" y="112" class="st0" width="16" height="16"/>
<rect x="664" y="128" class="st0" width="16" height="16"/>
<rect x="648" y="128" class="st0" width="16" height="16"/>
<rect x="648" y="144" class="st0" width="16" height="16"/>
<rect x="680" y="128" class="st0" width="16" height="16"/>
<rect x="680" y="144" class="st0" width="16" height="16"/>
<rect x="648" y="160" class="st0" width="16" height="16"/>
<rect x="680" y="160" class="st0" width="16" height="16"/>
<rect x="548" class="st1" width="256" height="256"/>
<rect x="336" y="192" class="st0" width="16" height="16"/>
<rect x="336" y="160" class="st0" width="16" height="16"/>
<rect x="416" y="192" class="st0" width="16" height="16"/>
<rect x="368" y="192" class="st0" width="16" height="16"/>
<rect x="448" y="192" class="st0" width="16" height="16"/>
<rect x="448" y="176" class="st0" width="16" height="16"/>
<rect x="432" y="176" class="st0" width="16" height="16"/>
<rect x="416" y="176" class="st0" width="16" height="16"/>
<rect x="400" y="176" class="st0" width="16" height="16"/>
<rect x="384" y="176" class="st0" width="16" height="16"/>
<rect x="368" y="176" class="st0" width="16" height="16"/>
<rect x="352" y="176" class="st0" width="16" height="16"/>
<rect x="336" y="176" class="st0" width="16" height="16"/>
<rect x="384" y="224" class="st0" width="16" height="16"/>
<rect x="400" y="224" class="st0" width="16" height="16"/>
<rect x="352" y="208" class="st0" width="16" height="16"/>
<rect x="336" y="208" class="st0" width="16" height="16"/>
<rect x="368" y="208" class="st0" width="16" height="16"/>
<rect x="416" y="208" class="st0" width="16" height="16"/>
<rect x="432" y="208" class="st0" width="16" height="16"/>
<rect x="448" y="208" class="st0" width="16" height="16"/>
<rect x="352" y="224" class="st0" width="16" height="16"/>
<rect x="368" y="224" class="st0" width="16" height="16"/>
<rect x="416" y="224" class="st0" width="16" height="16"/>
<rect x="432" y="224" class="st0" width="16" height="16"/>
<rect x="352" y="144" class="st0" width="16" height="16"/>
<rect x="384" y="144" class="st0" width="16" height="16"/>
<rect x="368" y="144" class="st0" width="16" height="16"/>
<rect x="400" y="144" class="st0" width="16" height="16"/>
<rect x="416" y="144" class="st0" width="16" height="16"/>
<rect x="368" y="144" class="st0" width="16" height="16"/>
<rect x="352" y="144" class="st0" width="16" height="16"/>
<rect x="400" y="144" class="st0" width="16" height="16"/>
<rect x="384" y="144" class="st0" width="16" height="16"/>
<rect x="416" y="144" class="st0" width="16" height="16"/>
<rect x="432" y="144" class="st0" width="16" height="16"/>
<rect x="352" y="160" class="st0" width="16" height="16"/>
<rect x="384" y="160" class="st0" width="16" height="16"/>
<rect x="400" y="160" class="st0" width="16" height="16"/>
<rect x="432" y="160" class="st0" width="16" height="16"/>
<rect x="432" y="144" class="st0" width="16" height="16"/>
<rect x="304" y="96" class="st0" width="16" height="16"/>
<rect x="304" y="96" class="st0" width="16" height="16"/>
<rect x="304" y="112" class="st0" width="16" height="16"/>
<rect x="304" y="128" class="st0" width="16" height="16"/>
<rect x="304" y="144" class="st0" width="16" height="16"/>
<rect x="480" y="96" class="st0" width="16" height="16"/>
<rect x="384" y="112" class="st0" width="16" height="16"/>
<rect x="400" y="112" class="st0" width="16" height="16"/>
<rect x="480" y="112" class="st0" width="16" height="16"/>
<rect x="320" y="64" class="st0" width="16" height="16"/>
<rect x="320" y="96" class="st0" width="16" height="16"/>
<rect x="336" y="96" class="st0" width="16" height="16"/>
<rect x="320" y="48" class="st0" width="16" height="16"/>
<rect x="304" y="64" class="st0" width="16" height="16"/>
<rect x="304" y="48" class="st0" width="16" height="16"/>
<rect x="336" y="64" class="st0" width="16" height="16"/>
<rect x="352" y="64" class="st0" width="16" height="16"/>
<rect x="368" y="64" class="st0" width="16" height="16"/>
<rect x="384" y="64" class="st0" width="16" height="16"/>
<rect x="400" y="64" class="st0" width="16" height="16"/>
<rect x="416" y="64" class="st0" width="16" height="16"/>
<rect x="432" y="64" class="st0" width="16" height="16"/>
<rect x="448" y="64" class="st0" width="16" height="16"/>
<rect x="336" y="80" class="st0" width="16" height="16"/>
<rect x="352" y="80" class="st0" width="16" height="16"/>
<rect x="368" y="80" class="st0" width="16" height="16"/>
<rect x="384" y="80" class="st0" width="16" height="16"/>
<rect x="400" y="80" class="st0" width="16" height="16"/>
<rect x="416" y="80" class="st0" width="16" height="16"/>
<rect x="432" y="80" class="st0" width="16" height="16"/>
<rect x="448" y="80" class="st0" width="16" height="16"/>
<rect x="464" y="48" class="st0" width="16" height="16"/>
<rect x="480" y="64" class="st0" width="16" height="16"/>
<rect x="464" y="64" class="st0" width="16" height="16"/>
<rect x="448" y="96" class="st0" width="16" height="16"/>
<rect x="464" y="96" class="st0" width="16" height="16"/>
<rect x="320" y="112" class="st0" width="16" height="16"/>
<rect x="464" y="112" class="st0" width="16" height="16"/>
<rect x="496" y="64" class="st0" width="16" height="16"/>
<rect x="496" y="48" class="st0" width="16" height="16"/>
<rect x="480" y="48" class="st0" width="16" height="16"/>
<rect x="480" y="32" class="st0" width="16" height="16"/>
<rect x="320" y="32" class="st0" width="16" height="16"/>
<rect x="288" y="96" class="st0" width="16" height="16"/>
<rect x="288" y="96" class="st0" width="16" height="16"/>
<rect x="304" y="80" class="st0" width="16" height="16"/>
<rect x="320" y="80" class="st0" width="16" height="16"/>
<rect x="288" y="80" class="st0" width="16" height="16"/>
<rect x="288" y="112" class="st0" width="16" height="16"/>
<rect x="288" y="128" class="st0" width="16" height="16"/>
<rect x="288" y="64" class="st0" width="16" height="16"/>
<rect x="320" y="48" class="st0" width="16" height="16"/>
<rect x="320" y="32" class="st0" width="16" height="16"/>
<rect x="304" y="48" class="st0" width="16" height="16"/>
<rect x="304" y="32" class="st0" width="16" height="16"/>
<rect x="288" y="48" class="st0" width="16" height="16"/>
<rect x="336" y="32" class="st0" width="16" height="16"/>
<rect x="352" y="32" class="st0" width="16" height="16"/>
<rect x="368" y="32" class="st0" width="16" height="16"/>
<rect x="384" y="32" class="st0" width="16" height="16"/>
<rect x="400" y="32" class="st0" width="16" height="16"/>
<rect x="416" y="32" class="st0" width="16" height="16"/>
<rect x="432" y="32" class="st0" width="16" height="16"/>
<rect x="448" y="32" class="st0" width="16" height="16"/>
<rect x="336" y="48" class="st0" width="16" height="16"/>
<rect x="352" y="48" class="st0" width="16" height="16"/>
<rect x="368" y="48" class="st0" width="16" height="16"/>
<rect x="384" y="48" class="st0" width="16" height="16"/>
<rect x="400" y="48" class="st0" width="16" height="16"/>
<rect x="416" y="48" class="st0" width="16" height="16"/>
<rect x="432" y="48" class="st0" width="16" height="16"/>
<rect x="448" y="48" class="st0" width="16" height="16"/>
<rect x="464" y="32" class="st0" width="16" height="16"/>
<rect x="336" y="16" class="st0" width="16" height="16"/>
<rect x="352" y="16" class="st0" width="16" height="16"/>
<rect x="368" y="16" class="st0" width="16" height="16"/>
<rect x="384" y="16" class="st0" width="16" height="16"/>
<rect x="400" y="16" class="st0" width="16" height="16"/>
<rect x="416" y="16" class="st0" width="16" height="16"/>
<rect x="432" y="16" class="st0" width="16" height="16"/>
<rect x="448" y="16" class="st0" width="16" height="16"/>
<rect x="496" y="96" class="st0" width="16" height="16"/>
<rect x="480" y="80" class="st0" width="16" height="16"/>
<rect x="464" y="80" class="st0" width="16" height="16"/>
<rect x="496" y="80" class="st0" width="16" height="16"/>
<rect x="496" y="112" class="st0" width="16" height="16"/>
<rect x="496" y="128" class="st0" width="16" height="16"/>
<rect x="288" y="144" class="st0" width="16" height="16"/>
<rect x="496" y="144" class="st0" width="16" height="16"/>
<rect x="480" y="128" class="st0" width="16" height="16"/>
<rect x="448" y="160" class="st0" width="16" height="16"/>
<rect x="480" y="160" class="st0" width="16" height="16"/>
<rect x="480" y="144" class="st0" width="16" height="16"/>
<rect x="288" y="160" class="st0" width="16" height="16"/>
<rect x="288" y="176" class="st0" width="16" height="16"/>
<rect x="272" y="96" class="st0" width="16" height="16"/>
<rect x="272" y="96" class="st0" width="16" height="16"/>
<rect x="272" y="80" class="st0" width="16" height="16"/>
<rect x="272" y="112" class="st0" width="16" height="16"/>
<rect x="272" y="128" class="st0" width="16" height="16"/>
<rect x="272" y="144" class="st0" width="16" height="16"/>
<rect x="272" y="160" class="st0" width="16" height="16"/>
<rect x="304" y="176" class="st0" width="16" height="16"/>
<rect x="304" y="192" class="st0" width="16" height="16"/>
<rect x="288" y="192" class="st0" width="16" height="16"/>
<rect x="272" y="176" class="st0" width="16" height="16"/>
<rect x="304" y="208" class="st0" width="16" height="16"/>
<rect x="320" y="224" class="st0" width="16" height="16"/>
<rect x="320" y="192" class="st0" width="16" height="16"/>
<rect x="304" y="160" class="st0" width="16" height="16"/>
<rect x="496" y="160" class="st0" width="16" height="16"/>
<rect x="512" y="96" class="st0" width="16" height="16"/>
<rect x="512" y="80" class="st0" width="16" height="16"/>
<rect x="512" y="112" class="st0" width="16" height="16"/>
<rect x="512" y="128" class="st0" width="16" height="16"/>
<rect x="512" y="144" class="st0" width="16" height="16"/>
<rect x="512" y="160" class="st0" width="16" height="16"/>
<rect x="512" y="176" class="st0" width="16" height="16"/>
<rect x="480" y="176" class="st0" width="16" height="16"/>
<rect x="496" y="176" class="st0" width="16" height="16"/>
<rect x="496" y="192" class="st0" width="16" height="16"/>
<rect x="480" y="192" class="st0" width="16" height="16"/>
<rect x="464" y="192" class="st0" width="16" height="16"/>
<rect x="480" y="208" class="st0" width="16" height="16"/>
<rect x="464" y="224" class="st0" width="16" height="16"/>
<rect x="272" class="st1" width="256" height="256"/>
<rect x="112" y="192" class="st0" width="16" height="16"/>
<rect x="128" y="192" class="st0" width="16" height="16"/>
<rect x="64" y="192" class="st0" width="16" height="16"/>
<rect x="96" y="192" class="st0" width="16" height="16"/>
<rect x="144" y="192" class="st0" width="16" height="16"/>
<rect x="176" y="192" class="st0" width="16" height="16"/>
<rect x="112" y="224" class="st0" width="16" height="16"/>
<rect x="128" y="224" class="st0" width="16" height="16"/>
<rect x="80" y="208" class="st0" width="16" height="16"/>
<rect x="64" y="208" class="st0" width="16" height="16"/>
<rect x="96" y="208" class="st0" width="16" height="16"/>
<rect x="144" y="208" class="st0" width="16" height="16"/>
<rect x="160" y="208" class="st0" width="16" height="16"/>
<rect x="176" y="208" class="st0" width="16" height="16"/>
<rect x="80" y="224" class="st0" width="16" height="16"/>
<rect x="96" y="224" class="st0" width="16" height="16"/>
<rect x="144" y="224" class="st0" width="16" height="16"/>
<rect x="160" y="224" class="st0" width="16" height="16"/>
<rect x="80" y="160" class="st0" width="16" height="16"/>
<rect x="112" y="160" class="st0" width="16" height="16"/>
<rect x="96" y="160" class="st0" width="16" height="16"/>
<rect x="128" y="160" class="st0" width="16" height="16"/>
<rect x="144" y="160" class="st0" width="16" height="16"/>
<rect x="96" y="160" class="st0" width="16" height="16"/>
<rect x="80" y="160" class="st0" width="16" height="16"/>
<rect x="128" y="160" class="st0" width="16" height="16"/>
<rect x="112" y="160" class="st0" width="16" height="16"/>
<rect x="144" y="160" class="st0" width="16" height="16"/>
<rect x="160" y="160" class="st0" width="16" height="16"/>
<rect x="80" y="176" class="st0" width="16" height="16"/>
<rect x="112" y="176" class="st0" width="16" height="16"/>
<rect x="128" y="176" class="st0" width="16" height="16"/>
<rect x="160" y="176" class="st0" width="16" height="16"/>
<rect x="64" y="176" class="st0" width="16" height="16"/>
<rect x="176" y="176" class="st0" width="16" height="16"/>
<rect x="160" y="160" class="st0" width="16" height="16"/>
<rect x="32" y="112" class="st0" width="16" height="16"/>
<rect x="32" y="112" class="st0" width="16" height="16"/>
<rect x="32" y="128" class="st0" width="16" height="16"/>
<rect x="32" y="144" class="st0" width="16" height="16"/>
<rect x="80" y="112" class="st0" width="16" height="16"/>
<rect x="80" y="112" class="st0" width="16" height="16"/>
<rect x="160" y="112" class="st0" width="16" height="16"/>
<rect x="112" y="128" class="st0" width="16" height="16"/>
<rect x="128" y="128" class="st0" width="16" height="16"/>
<rect x="160" y="112" class="st0" width="16" height="16"/>
<rect x="208" y="112" class="st0" width="16" height="16"/>
<rect x="208" y="128" class="st0" width="16" height="16"/>
<rect x="48" y="96" class="st0" width="16" height="16"/>
<rect x="48" y="112" class="st0" width="16" height="16"/>
<rect x="48" y="128" class="st0" width="16" height="16"/>
<rect x="64" y="96" class="st0" width="16" height="16"/>
<rect x="48" y="80" class="st0" width="16" height="16"/>
<rect x="32" y="96" class="st0" width="16" height="16"/>
<rect x="32" y="80" class="st0" width="16" height="16"/>
<rect x="64" y="80" class="st0" width="16" height="16"/>
<rect x="80" y="80" class="st0" width="16" height="16"/>
<rect x="96" y="80" class="st0" width="16" height="16"/>
<rect x="112" y="80" class="st0" width="16" height="16"/>
<rect x="128" y="80" class="st0" width="16" height="16"/>
<rect x="144" y="80" class="st0" width="16" height="16"/>
<rect x="160" y="80" class="st0" width="16" height="16"/>
<rect x="80" y="96" class="st0" width="16" height="16"/>
<rect x="96" y="96" class="st0" width="16" height="16"/>
<rect x="112" y="96" class="st0" width="16" height="16"/>
<rect x="128" y="96" class="st0" width="16" height="16"/>
<rect x="144" y="96" class="st0" width="16" height="16"/>
<rect x="160" y="96" class="st0" width="16" height="16"/>
<rect x="176" y="80" class="st0" width="16" height="16"/>
<rect x="192" y="80" class="st0" width="16" height="16"/>
<rect x="208" y="96" class="st0" width="16" height="16"/>
<rect x="192" y="96" class="st0" width="16" height="16"/>
<rect x="176" y="96" class="st0" width="16" height="16"/>
<rect x="64" y="112" class="st0" width="16" height="16"/>
<rect x="176" y="112" class="st0" width="16" height="16"/>
<rect x="192" y="112" class="st0" width="16" height="16"/>
<rect x="192" y="128" class="st0" width="16" height="16"/>
<rect x="224" y="96" class="st0" width="16" height="16"/>
<rect x="208" y="80" class="st0" width="16" height="16"/>
<rect x="224" y="80" class="st0" width="16" height="16"/>
<rect x="48" y="64" class="st0" width="16" height="16"/>
<rect x="32" y="64" class="st0" width="16" height="16"/>
<rect x="16" y="112" class="st0" width="16" height="16"/>
<rect x="16" y="112" class="st0" width="16" height="16"/>
<rect x="16" y="128" class="st0" width="16" height="16"/>
<rect x="16" y="144" class="st0" width="16" height="16"/>
<rect x="16" y="160" class="st0" width="16" height="16"/>
<rect x="16" y="96" class="st0" width="16" height="16"/>
<rect x="16" y="80" class="st0" width="16" height="16"/>
<rect x="16" y="64" class="st0" width="16" height="16"/>
<rect x="16" y="48" class="st0" width="16" height="16"/>
<rect y="48" class="st0" width="16" height="16"/>
<rect y="112" class="st0" width="16" height="16"/>
<rect y="112" class="st0" width="16" height="16"/>
<rect y="128" class="st0" width="16" height="16"/>
<rect y="144" class="st0" width="16" height="16"/>
<rect y="96" class="st0" width="16" height="16"/>
<rect y="80" class="st0" width="16" height="16"/>
<rect y="64" class="st0" width="16" height="16"/>
<rect x="32" y="48" class="st0" width="16" height="16"/>
<rect x="64" y="64" class="st0" width="16" height="16"/>
<rect x="80" y="64" class="st0" width="16" height="16"/>
<rect x="96" y="64" class="st0" width="16" height="16"/>
<rect x="112" y="64" class="st0" width="16" height="16"/>
<rect x="128" y="64" class="st0" width="16" height="16"/>
<rect x="144" y="64" class="st0" width="16" height="16"/>
<rect x="160" y="64" class="st0" width="16" height="16"/>
<rect x="176" y="64" class="st0" width="16" height="16"/>
<rect x="192" y="64" class="st0" width="16" height="16"/>
<rect x="208" y="64" class="st0" width="16" height="16"/>
<rect x="208" y="48" class="st0" width="16" height="16"/>
<rect x="224" y="64" class="st0" width="16" height="16"/>
<rect x="48" y="48" class="st0" width="16" height="16"/>
<rect x="48" y="32" class="st0" width="16" height="16"/>
<rect x="32" y="32" class="st0" width="16" height="16"/>
<rect x="16" y="40" class="st0" width="16" height="16"/>
<rect x="32" y="24" class="st0" width="16" height="16"/>
<rect x="16" y="32" class="st0" width="16" height="16"/>
<rect x="32" y="16" class="st0" width="16" height="16"/>
<rect x="48" y="16" class="st0" width="16" height="16"/>
<rect x="64" y="48" class="st0" width="16" height="16"/>
<rect x="80" y="48" class="st0" width="16" height="16"/>
<rect x="96" y="48" class="st0" width="16" height="16"/>
<rect x="112" y="48" class="st0" width="16" height="16"/>
<rect x="128" y="48" class="st0" width="16" height="16"/>
<rect x="144" y="48" class="st0" width="16" height="16"/>
<rect x="160" y="48" class="st0" width="16" height="16"/>
<rect x="176" y="48" class="st0" width="16" height="16"/>
<rect x="192" y="48" class="st0" width="16" height="16"/>
<rect x="192" y="32" class="st0" width="16" height="16"/>
<rect x="208" y="32" class="st0" width="16" height="16"/>
<rect x="224" y="48" class="st0" width="16" height="16"/>
<rect x="224" y="32" class="st0" width="16" height="16"/>
<rect x="192" y="16" class="st0" width="16" height="16"/>
<rect x="64" y="32" class="st0" width="16" height="16"/>
<rect x="64" y="16" class="st0" width="16" height="16"/>
<rect x="80" y="32" class="st0" width="16" height="16"/>
<rect x="96" y="32" class="st0" width="16" height="16"/>
<rect x="112" y="32" class="st0" width="16" height="16"/>
<rect x="128" y="32" class="st0" width="16" height="16"/>
<rect x="144" y="32" class="st0" width="16" height="16"/>
<rect x="160" y="32" class="st0" width="16" height="16"/>
<rect x="176" y="32" class="st0" width="16" height="16"/>
<rect x="80" y="16" class="st0" width="16" height="16"/>
<rect x="96" y="16" class="st0" width="16" height="16"/>
<rect x="112" y="16" class="st0" width="16" height="16"/>
<rect x="128" y="16" class="st0" width="16" height="16"/>
<rect x="144" y="16" class="st0" width="16" height="16"/>
<rect x="160" y="16" class="st0" width="16" height="16"/>
<rect x="176" y="16" class="st0" width="16" height="16"/>
<rect x="192" y="16" class="st0" width="16" height="16"/>
<rect x="208" y="16" class="st0" width="16" height="16"/>
<rect x="64" y="16" class="st0" width="16" height="16"/>
<rect x="64" class="st0" width="16" height="16"/>
<rect x="80" y="16" class="st0" width="16" height="16"/>
<rect x="96" y="16" class="st0" width="16" height="16"/>
<rect x="112" y="16" class="st0" width="16" height="16"/>
<rect x="128" y="16" class="st0" width="16" height="16"/>
<rect x="144" y="16" class="st0" width="16" height="16"/>
<rect x="160" y="16" class="st0" width="16" height="16"/>
<rect x="176" y="16" class="st0" width="16" height="16"/>
<rect x="80" class="st0" width="16" height="16"/>
<rect x="96" class="st0" width="16" height="16"/>
<rect x="112" class="st0" width="16" height="16"/>
<rect x="128" class="st0" width="16" height="16"/>
<rect x="144" class="st0" width="16" height="16"/>
<rect x="160" class="st0" width="16" height="16"/>
<rect x="176" class="st0" width="16" height="16"/>
<rect x="224" y="112" class="st0" width="16" height="16"/>
<rect x="224" y="128" class="st0" width="16" height="16"/>
<rect x="224" y="144" class="st0" width="16" height="16"/>
<rect x="240" y="96" class="st0" width="16" height="16"/>
<rect x="240" y="80" class="st0" width="16" height="16"/>
<rect x="240" y="64" class="st0" width="16" height="16"/>
<rect x="240" y="48" class="st0" width="16" height="16"/>
<rect x="240" y="112" class="st0" width="16" height="16"/>
<rect x="240" y="128" class="st0" width="16" height="16"/>
<rect x="240" y="144" class="st0" width="16" height="16"/>
<rect x="224" y="160" class="st0" width="16" height="16"/>
<rect x="208" y="144" class="st0" width="16" height="16"/>
<rect x="32" y="160" class="st0" width="16" height="16"/>
<rect x="32" y="176" class="st0" width="16" height="16"/>
<rect x="48" y="192" class="st0" width="16" height="16"/>
<rect x="208" y="160" class="st0" width="16" height="16"/>
<rect x="192" y="192" class="st0" width="16" height="16"/>
<rect x="208" y="176" class="st0" width="16" height="16"/>
<g id="NxNeG5.tif">
	
		<image style="overflow:visible;" width="78" height="37" id="Layer_1_1_" xlink:href="7466E5121D735D01.png"  transform="matrix(1 0 0 1 750.8333 127)">
	</image>
</g>
<image style="overflow:visible;" width="192" height="1260" xlink:href="../../../../Downloads/Screen Shot 2017-10-31 at 4.24.15 PM.png"  transform="matrix(0.5 0 0 0.5 952 -10)">
</image>
<image style="overflow:visible;" width="192" height="1260" xlink:href="../../../../Downloads/Screen Shot 2017-10-31 at 4.24.15 PM.png"  transform="matrix(-0.5 0 0 -0.5 1130.6666 654)">
</image>
</svg>
