<?xml version="1.0" encoding="iso-8859-1"?>
<!-- Generator: Adobe Illustrator 22.0.0, SVG Export Plug-In . SVG Version: 6.00 Build 0)  -->
<svg version="1.1" id="Layer_1" xmlns="http://www.w3.org/2000/svg" xmlns:xlink="http://www.w3.org/1999/xlink" x="0px" y="0px"
	 width="24px" height="24px" viewBox="0 0 24 24" enable-background="new 0 0 24 24" xml:space="preserve">
<g>
	<path fill="#000001" d="M18.929,10.704l-3.647-0.839l4.333,4.265l4.22-0.839c0.221,2.786,0.221,5.569,0,8.353
		c-4.617,0.31-8.198,0.31-10.143,0l-1.834-6.762l-1.548,6.762c-1.922,0.31-5.524,0.31-10.143,0c-0.221-2.784-0.221-5.567,0-8.353
		l4.243,0.839l4.176-4.221l-3.579,0.795c-0.221-2.785-0.221-5.548,0-8.331c4.617-0.331,9.303-0.331,13.922,0
		C19.15,5.157,19.15,7.92,18.929,10.704z"/>
</g>
<g>
</g>
<g>
</g>
<g>
</g>
<g>
</g>
<g>
</g>
<g>
</g>
</svg>
