<?xml version="1.0" standalone="no"?>
<!DOCTYPE svg PUBLIC "-//W3C//DTD SVG 20010904//EN"
 "http://www.w3.org/TR/2001/REC-SVG-20010904/DTD/svg10.dtd">
<svg version="1.0" xmlns="http://www.w3.org/2000/svg"
 width="520.000000pt" height="520.000000pt" viewBox="0 0 520.000000 520.000000"
 preserveAspectRatio="xMidYMid meet">
<metadata>
Created by potrace 1.11, written by Peter Selinger 2001-2013
</metadata>
<g transform="translate(0.000000,520.000000) scale(0.100000,-0.100000)"
fill="#000000" stroke="none">
<path d="M0 2600 l0 -2600 2600 0 2600 0 0 2600 0 2600 -2600 0 -2600 0 0
-2600z m2870 1520 l0 -140 -270 0 -270 0 0 140 0 140 270 0 270 0 0 -140z
m1110 -550 l0 -140 -1380 0 -1380 0 0 140 0 140 1380 0 1380 0 0 -140z m-2770
-555 l0 -135 -275 0 -275 0 0 135 0 135 275 0 275 0 0 -135z m2220 0 l0 -135
-830 0 -830 0 0 135 0 135 830 0 830 0 0 -135z m1110 0 l0 -135 -275 0 -275 0
0 135 0 135 275 0 275 0 0 -135z m-3330 -555 l0 -140 -275 0 -275 0 0 140 0
140 275 0 275 0 0 -140z m2220 0 l0 -140 -830 0 -830 0 0 140 0 140 830 0 830
0 0 -140z m1110 0 l0 -140 -275 0 -275 0 0 140 0 140 275 0 275 0 0 -140z
m-2220 -555 l0 -135 -275 0 -275 0 0 135 0 135 275 0 275 0 0 -135z m1110 0
l0 -135 -275 0 -275 0 0 135 0 135 275 0 275 0 0 -135z m-1110 -550 l0 -135
-275 0 -275 0 0 135 0 135 275 0 275 0 0 -135z m1110 0 l0 -135 -275 0 -275 0
0 135 0 135 275 0 275 0 0 -135z"/>
</g>
</svg>
